<?xml version="1.0" standalone="no"?>
<!DOCTYPE svg PUBLIC "-//W3C//DTD SVG 20010904//EN"
 "http://www.w3.org/TR/2001/REC-SVG-20010904/DTD/svg10.dtd">
<svg version="1.0" xmlns="http://www.w3.org/2000/svg"
 width="192.000000pt" height="192.000000pt" viewBox="0 0 192.000000 192.000000"
 preserveAspectRatio="xMidYMid meet">

<g transform="translate(0.000000,192.000000) scale(0.100000,-0.100000)"
fill="#000000" stroke="none">
<path d="M820 1684 c-36 -14 -74 -28 -85 -31 -11 -4 -31 -14 -44 -25 -13 -10
-31 -18 -41 -18 -24 0 -85 -46 -147 -111 -55 -58 -113 -133 -113 -148 0 -8
-29 -77 -66 -156 -18 -40 -38 -142 -36 -185 1 -19 4 -83 8 -142 6 -118 0 -110
78 -92 20 5 27 3 22 -4 -4 -6 2 -29 14 -51 11 -22 20 -45 20 -51 0 -6 -19 -20
-42 -30 -24 -11 -37 -20 -30 -20 6 0 12 -7 12 -15 0 -8 6 -15 13 -15 8 0 31
-25 52 -55 65 -96 211 -215 306 -251 24 -9 59 -23 77 -31 18 -8 72 -19 121
-25 93 -12 167 -4 285 28 63 17 86 33 86 59 0 19 32 34 38 17 5 -17 37 -15 52
3 7 8 18 15 25 15 17 0 146 120 140 131 -7 10 40 86 66 109 18 15 62 131 53
139 -2 3 -10 -1 -16 -7 -14 -14 -32 -16 -24 -3 4 5 -3 7 -13 4 -17 -4 -20 1
-23 38 l-4 44 -13 -33 c-10 -25 -16 -30 -22 -20 -6 9 -9 7 -9 -10 0 -13 4 -20
10 -17 6 3 10 -5 10 -19 0 -17 -11 -33 -32 -49 -39 -29 -85 -46 -73 -27 6 9 3
9 -14 1 -11 -7 -21 -22 -21 -34 -1 -20 -2 -20 -11 -4 -13 22 -31 22 -80 -4
-39 -19 -41 -22 -34 -55 7 -39 -2 -64 -16 -43 -5 8 -9 26 -9 41 0 30 44 70 98
89 28 9 32 16 32 45 0 50 -27 111 -42 96 -7 -7 -17 -12 -22 -12 -6 0 -4 5 4
11 12 9 11 9 -5 4 -46 -16 -54 -16 -75 5 -18 18 -21 30 -16 59 5 34 12 43 66
81 l22 15 -22 63 c-18 53 -20 65 -8 79 10 14 10 15 0 9 -8 -5 -19 -1 -27 10
-13 18 -14 18 -9 -3 4 -15 0 -23 -15 -28 -12 -3 -21 -12 -21 -20 0 -23 30 -46
51 -40 17 6 19 3 13 -22 -3 -15 -13 -38 -20 -50 -8 -13 -11 -23 -7 -23 3 0 -4
-11 -16 -24 -12 -13 -23 -33 -24 -45 -1 -11 -4 -21 -7 -21 -3 0 -6 -9 -7 -20
-2 -23 -62 -120 -74 -120 -5 0 -6 -6 -3 -13 5 -15 -30 -52 -43 -44 -4 3 -9 -7
-10 -21 -1 -28 -40 -64 -61 -57 -9 3 -10 0 -3 -14 21 -38 36 -42 82 -22 77 34
113 31 134 -9 12 -23 12 -30 3 -30 -19 0 -33 12 -41 34 -6 15 -14 17 -39 12
-40 -8 -78 -32 -78 -50 0 -7 13 -30 30 -51 28 -35 31 -55 9 -55 -5 0 -9 8 -9
18 0 10 -15 33 -34 51 -33 32 -34 33 -66 16 -17 -9 -36 -15 -42 -13 -6 2 3 10
20 17 18 8 32 19 32 26 0 7 -16 36 -35 65 -19 29 -35 60 -35 70 0 10 16 27 35
39 38 22 46 54 17 70 -12 6 -25 5 -42 -5 -14 -7 -30 -13 -37 -14 -23 0 -73 52
-98 104 -15 31 -35 56 -46 59 -16 4 -19 2 -13 -15 5 -17 3 -19 -15 -13 -14 4
-34 -1 -58 -15 -28 -16 -38 -18 -44 -8 -5 7 -1 20 9 32 16 18 16 18 -5 7 -13
-6 -23 -14 -23 -17 0 -2 11 -27 25 -54 28 -56 33 -105 10 -114 -25 -9 -65 12
-83 44 -20 35 -43 45 -71 31 -27 -15 -41 -14 -41 4 0 8 -4 15 -10 15 -14 0
-13 -13 3 -34 13 -17 15 -17 45 -2 17 9 35 16 39 16 4 -1 -14 -13 -42 -27 -29
-15 -51 -21 -53 -15 -2 6 -9 9 -17 6 -17 -7 -29 14 -17 29 7 8 6 20 -3 37 -8
14 -14 30 -15 36 0 6 30 25 68 42 37 18 62 32 56 32 -18 0 -66 120 -71 181 -6
66 9 142 40 190 11 19 20 42 18 52 -2 14 2 17 22 12 16 -4 39 1 63 13 38 19
38 20 36 78 -1 51 0 55 8 28 l10 -31 67 34 c38 19 110 51 160 72 51 21 90 41
86 44 -17 17 13 4 32 -13 21 -20 24 -20 63 -5 50 21 59 41 31 72 l-22 23 22 0
c12 0 40 -9 61 -20 45 -23 85 -19 101 11 9 17 3 23 -48 45 -32 13 -71 31 -86
39 -20 11 -61 15 -140 14 -95 0 -122 -4 -177 -25z m25 -84 c3 -5 1 -10 -4 -10
-6 0 -11 5 -11 10 0 6 2 10 4 10 3 0 8 -4 11 -10z m-125 -60 c0 -5 -4 -10 -9
-10 -6 0 -13 5 -16 10 -3 6 1 10 9 10 9 0 16 -4 16 -10z m-180 -185 c0 -8 -4
-15 -9 -15 -13 0 -22 16 -14 24 11 11 23 6 23 -9z m-110 -140 c0 -6 -56 -35
-67 -35 -14 1 39 40 53 40 8 0 14 -2 14 -5z m10 -195 c8 -15 5 -17 -23 -15
-19 1 -33 8 -35 17 -4 22 46 20 58 -2z m0 -99 c-11 -21 -40 -29 -40 -12 0 11
42 43 48 37 2 -3 -1 -14 -8 -25z m1030 -311 c0 -5 -4 -10 -10 -10 -5 0 -10 5
-10 10 0 6 5 10 10 10 6 0 10 -4 10 -10z m-924 -71 c3 -6 1 -16 -5 -22 -9 -9
-14 -8 -21 3 -9 15 -4 30 10 30 5 0 12 -5 16 -11z m909 -28 c3 -5 1 -12 -5
-16 -5 -3 -10 1 -10 9 0 18 6 21 15 7z m-618 -53 c-5 -28 -20 -33 -37 -13 -12
14 -11 18 1 26 24 15 39 10 36 -13z m653 -18 c-6 -11 -16 -20 -22 -20 -6 0 -3
9 7 20 10 11 20 20 22 20 2 0 -1 -9 -7 -20z m-451 -30 c-37 -19 -109 -37 -97
-25 13 14 113 52 122 47 5 -3 -6 -13 -25 -22z m-172 -26 c3 -9 -56 -44 -74
-44 -3 0 7 13 23 29 29 28 45 33 51 15z m-117 -49 c-7 -9 -15 -13 -17 -11 -7
7 7 26 19 26 6 0 6 -6 -2 -15z m380 1 c0 -3 -4 -8 -10 -11 -5 -3 -10 -1 -10 4
0 6 5 11 10 11 6 0 10 -2 10 -4z m70 -36 c0 -5 -4 -10 -10 -10 -5 0 -10 5 -10
10 0 6 5 10 10 10 6 0 10 -4 10 -10z"/>
<path d="M939 1502 c-40 -21 -55 -34 -57 -52 l-4 -25 24 22 c13 12 40 29 61
38 20 8 37 22 37 30 0 19 1 20 -61 -13z"/>
<path d="M973 1476 c-38 -18 -53 -31 -53 -45 0 -11 5 -23 10 -26 15 -9 12 -52
-6 -69 -8 -9 -31 -16 -50 -16 -29 0 -38 6 -56 35 -22 38 -25 38 -94 10 -17 -7
-34 -17 -37 -22 -8 -13 12 -69 46 -125 28 -48 31 -66 21 -105 -4 -16 -14 -23
-31 -23 -13 0 -33 -5 -44 -11 -15 -8 -25 -7 -37 2 -15 12 -15 11 0 -6 15 -17
21 -17 57 -5 21 7 44 9 50 6 6 -4 27 -40 47 -79 19 -40 39 -75 43 -80 9 -9
121 39 121 52 0 5 -4 21 -10 36 -6 15 -6 33 -1 43 5 9 14 29 20 44 21 54 100
50 127 -7 11 -25 23 -35 39 -35 13 0 26 -7 29 -16 9 -23 8 -24 -15 -24 -11 0
-17 -5 -14 -10 7 -12 -118 -74 -137 -68 -7 3 -23 -5 -36 -16 -13 -12 -44 -31
-70 -44 -52 -25 -28 -23 31 2 21 9 37 12 37 6 0 -18 47 -11 110 17 54 23 61
29 57 50 -5 27 0 29 25 7 15 -14 20 -15 34 -4 8 8 13 22 11 31 -3 10 2 20 10
23 8 3 11 11 7 17 -4 8 -9 7 -15 -2 -10 -17 -11 -16 -43 49 -15 29 -24 57 -21
62 3 5 26 18 50 29 50 22 51 24 30 74 -20 48 -19 64 5 72 22 7 50 32 50 45 0
5 -7 15 -15 24 -12 12 -22 13 -41 6 -59 -23 -76 -13 -166 93 l-23 27 -52 -24z"/>
<path d="M1870 1458 c0 -7 4 -19 9 -27 11 -17 23 1 15 23 -7 19 -24 21 -24 4z"/>
<path d="M1780 1425 c0 -16 25 -55 36 -55 9 0 9 7 -2 30 -13 25 -34 41 -34 25z"/>
<path d="M711 1396 c-55 -29 -38 -43 20 -16 24 11 57 20 72 20 16 0 26 4 22
10 -11 17 -68 10 -114 -14z"/>
<path d="M1857 1363 c9 -16 18 -29 19 -31 0 -1 8 0 16 3 13 5 12 10 -7 31 -31
33 -50 31 -28 -3z"/>
<path d="M892 1364 c-7 -8 -19 -11 -25 -8 -9 5 -9 4 0 -6 14 -16 43 -6 43 15
0 18 -1 18 -18 -1z"/>
<path d="M1654 1334 c57 -28 56 -27 56 -13 0 12 -61 39 -87 38 -10 0 4 -11 31
-25z"/>
<path d="M1560 1313 c0 -14 19 -38 25 -32 8 8 -5 39 -16 39 -5 0 -9 -3 -9 -7z"/>
<path d="M1730 1312 c0 -14 48 -32 66 -25 12 4 8 9 -16 19 -37 16 -50 17 -50
6z"/>
<path d="M654 1294 c4 -10 10 -40 13 -66 5 -44 4 -48 -21 -60 -28 -12 -56 -54
-56 -82 0 -8 12 -28 26 -43 22 -25 24 -25 10 -3 -26 41 -20 69 25 111 l41 38
-12 55 c-6 31 -16 59 -22 62 -8 5 -9 1 -4 -12z"/>
<path d="M1597 1236 c9 -21 21 -32 29 -29 10 4 8 10 -6 26 -11 11 -20 24 -20
29 0 4 -4 8 -10 8 -5 0 -2 -15 7 -34z"/>
<path d="M1330 1150 c17 -33 35 -60 41 -60 6 0 1 12 -10 26 -11 14 -25 41 -31
60 -6 19 -16 34 -21 34 -5 0 4 -27 21 -60z"/>
<path d="M1491 1183 c9 -28 14 -31 30 -23 10 6 19 13 19 16 0 3 -5 2 -11 -2
-7 -4 -20 4 -30 17 l-19 24 11 -32z"/>
<path d="M1198 1149 c-40 -20 -43 -26 -29 -47 7 -11 17 -10 52 8 54 28 51 24
43 44 -8 21 -20 20 -66 -5z"/>
<path d="M1460 1140 c-9 -6 -10 -10 -3 -10 6 0 15 5 18 10 8 12 4 12 -15 0z"/>
<path d="M1220 1095 c-25 -13 -40 -24 -34 -25 17 0 82 28 89 40 10 15 -6 11
-55 -15z"/>
<path d="M1033 1062 c-24 -13 -30 -21 -23 -31 13 -21 60 2 60 29 0 11 -1 20
-2 20 -2 -1 -17 -9 -35 -18z"/>
<path d="M751 993 c10 -20 19 -46 18 -58 0 -11 -3 -14 -6 -7 -2 6 -9 12 -14
12 -5 0 -1 -16 8 -35 16 -34 17 -34 31 -14 13 19 12 26 -9 70 -12 27 -28 54
-35 60 -7 6 -4 -7 7 -28z"/>
<path d="M1055 1012 c-29 -17 -45 -42 -25 -42 24 0 78 34 73 46 -6 18 -11 17
-48 -4z"/>
<path d="M667 904 c-40 -21 -46 -27 -38 -43 10 -17 12 -17 56 3 48 23 44 36
-6 16 -46 -19 -46 -4 0 20 23 11 41 23 41 25 0 7 1 7 -53 -21z"/>
<path d="M567 854 c-3 -4 3 -24 14 -46 11 -22 19 -49 16 -59 -3 -11 5 -29 19
-44 20 -22 27 -24 45 -15 15 9 19 17 14 33 -3 12 -7 27 -7 34 -1 7 -4 10 -8 8
-4 -2 -20 19 -35 47 -16 29 -31 46 -33 39 -3 -9 -6 -10 -11 -2 -4 6 -10 8 -14
5z"/>
<path d="M883 847 c-13 -7 -19 -17 -15 -24 9 -14 72 10 72 27 0 14 -30 12 -57
-3z"/>
<path d="M483 817 c-37 -19 -40 -24 -29 -39 12 -17 15 -17 54 2 46 22 45 21
36 44 -8 20 -10 20 -61 -7z"/>
<path d="M540 780 c-12 -8 -10 -10 8 -10 13 0 20 4 17 10 -7 12 -6 12 -25 0z"/>
<path d="M318 740 l-37 -20 23 -51 c35 -74 46 -75 25 0 -2 7 1 15 7 18 7 2 14
-7 18 -21 6 -23 9 -24 31 -14 29 13 32 23 9 32 -9 4 -14 9 -11 12 7 7 -12 64
-21 64 -4 -1 -24 -10 -44 -20z m12 -14 c0 -3 -4 -8 -10 -11 -5 -3 -10 -1 -10
4 0 6 5 11 10 11 6 0 10 -2 10 -4z"/>
<path d="M150 672 c0 -4 5 -13 10 -18 6 -6 19 -33 30 -60 10 -27 19 -43 20
-36 0 7 4 11 9 7 6 -3 -4 22 -21 55 -28 53 -48 75 -48 52z"/>
<path d="M106 652 c-3 -6 -1 -14 5 -17 15 -10 25 3 12 16 -7 7 -13 7 -17 1z"/>
<path d="M1038 624 c-38 -20 -36 -28 2 -9 17 9 30 18 30 20 0 7 -1 6 -32 -11z"/>
<path d="M261 589 c-27 -22 -17 -25 18 -5 13 7 20 16 15 19 -5 3 -20 -3 -33
-14z"/>
<path d="M30 593 c0 -22 26 -73 37 -73 17 0 16 2 -4 45 -15 31 -33 47 -33 28z"/>
<path d="M135 583 c18 -44 16 -50 -15 -63 -17 -7 -29 -15 -26 -17 2 -2 23 5
45 17 l41 21 -15 29 c-17 32 -42 43 -30 13z"/>
</g>
</svg>
