<?xml version="1.0" standalone="no"?>
<!DOCTYPE svg PUBLIC "-//W3C//DTD SVG 20010904//EN"
 "http://www.w3.org/TR/2001/REC-SVG-20010904/DTD/svg10.dtd">
<svg version="1.0" xmlns="http://www.w3.org/2000/svg"
 width="512.000000pt" height="512.000000pt" viewBox="0 0 512.000000 512.000000"
 preserveAspectRatio="xMidYMid meet">

<g transform="translate(0.000000,512.000000) scale(0.100000,-0.100000)"
fill="#000000" stroke="none">
<path d="M2450 4553 c-25 -2 -65 -6 -90 -9 -37 -5 -41 -8 -25 -15 14 -6 8 -7
-17 -3 -30 5 -38 2 -47 -15 -9 -15 -21 -21 -48 -21 -47 0 -114 -20 -120 -37
-3 -7 -12 -13 -20 -13 -8 0 -34 -9 -59 -20 -24 -11 -59 -23 -77 -27 -17 -3
-50 -18 -72 -32 -22 -15 -53 -33 -70 -41 -16 -8 -33 -19 -37 -25 -4 -5 -24 -8
-44 -6 -20 1 -39 -1 -43 -6 -12 -18 -104 -83 -111 -78 -8 5 -280 -260 -347
-337 -22 -25 -60 -78 -84 -117 -24 -38 -49 -70 -55 -71 -9 0 -54 -80 -54 -96
0 -4 8 -3 17 0 15 6 15 5 2 -11 -25 -29 -93 -169 -135 -278 -21 -55 -48 -115
-60 -133 -30 -44 -40 -77 -63 -209 -11 -61 -24 -120 -30 -132 -12 -22 -15
-103 -3 -84 4 6 5 -53 4 -132 -3 -96 2 -187 13 -277 10 -73 18 -170 19 -215 1
-51 6 -87 14 -95 9 -9 12 -9 12 0 0 15 27 16 32 0 3 -8 29 -1 80 20 42 18 86
32 97 32 26 0 36 -16 15 -28 -14 -8 -9 -22 35 -114 60 -126 68 -158 43 -187
-19 -22 -250 -131 -280 -131 -10 0 -24 6 -32 13 -12 10 -12 9 -1 -5 18 -23 59
-23 112 2 24 11 50 20 57 20 15 0 16 -32 1 -47 -19 -19 6 -51 35 -46 32 6 59
-21 146 -147 71 -104 287 -329 384 -401 170 -126 303 -208 401 -244 36 -14 77
-33 91 -41 13 -9 39 -18 57 -20 18 -2 43 -9 56 -16 l23 -13 -23 -6 c-27 -6
134 -47 276 -70 103 -17 456 -17 555 -1 102 17 116 22 99 33 -10 6 -7 9 11 9
25 0 191 36 277 59 24 6 47 20 53 31 6 11 22 23 35 26 38 9 48 27 33 59 -11
25 -10 29 20 56 42 38 55 37 78 -6 11 -21 24 -33 32 -30 8 3 20 5 27 5 8 0 29
13 47 29 18 16 53 39 78 52 25 12 54 29 64 38 16 13 18 14 11 1 -4 -8 6 1 23
20 17 19 31 29 32 22 0 -7 5 -10 10 -7 6 4 8 10 5 15 -3 5 -1 11 5 15 5 3 10
1 10 -6 0 -8 4 -8 15 1 8 7 15 19 15 26 0 8 8 14 18 14 10 0 45 28 78 62 97
101 114 125 108 156 -7 38 97 212 163 272 55 50 93 128 139 290 22 76 24 94
13 101 -8 5 -18 9 -24 9 -5 0 -4 -4 4 -9 20 -13 -58 -51 -104 -51 -39 0 -43 6
-17 27 15 13 15 13 -5 4 -41 -20 -44 -15 -42 82 2 97 -2 117 -26 117 -31 0
-49 -50 -55 -154 -11 -162 -47 -209 -232 -299 -73 -35 -89 -47 -97 -72 -7 -22
-10 -24 -10 -10 -2 19 -33 65 -45 65 -3 0 -6 -60 -6 -133 0 -129 1 -134 25
-157 19 -18 22 -26 14 -37 -12 -14 -39 -18 -39 -5 0 4 -5 65 -10 136 -8 112
-12 132 -31 153 -13 12 -32 23 -43 23 -33 0 -225 -100 -243 -126 -10 -16 -13
-35 -9 -56 18 -95 18 -105 1 -143 l-18 -40 -8 30 c-4 17 -13 48 -20 70 -30
101 20 159 221 259 l125 62 -3 75 c-4 115 -38 227 -79 267 -41 38 -74 41 -123
10 -51 -32 -130 -31 -166 2 -101 94 -51 295 85 340 61 20 81 43 81 94 0 48
-48 202 -86 277 -13 27 -24 52 -24 57 0 4 16 16 35 25 19 9 35 20 35 24 -1 5
-12 28 -26 53 -24 43 -24 39 -2 -24 8 -22 8 -30 -3 -37 -27 -17 -42 -4 -79 66
l-37 71 -54 -26 c-30 -14 -87 -40 -127 -58 -74 -34 -78 -37 -63 -61 8 -12 29
-5 118 39 59 30 111 56 115 58 11 5 50 -87 42 -99 -3 -5 -11 -9 -17 -9 -15 0
-88 -38 -102 -52 -7 -7 -7 -9 1 -5 6 3 15 -13 22 -38 17 -62 51 -99 95 -100
20 -1 34 2 31 7 -3 4 5 6 18 4 18 -3 22 -9 20 -31 -2 -14 3 -33 9 -42 11 -12
10 -14 -6 -11 -13 2 -20 -4 -22 -17 -8 -49 -26 -105 -34 -105 -5 0 -9 -7 -9
-15 0 -8 -4 -15 -10 -15 -14 0 -12 -27 3 -33 7 -3 5 -6 -6 -6 -9 -1 -26 -6
-36 -13 -15 -9 -17 -16 -10 -30 8 -14 5 -20 -15 -29 -16 -8 -26 -23 -31 -45
-3 -19 -9 -34 -13 -34 -4 0 -8 -8 -9 -17 -5 -60 -17 -113 -24 -113 -5 0 -9 -7
-9 -15 0 -8 -4 -15 -9 -15 -5 0 -15 -24 -23 -52 -11 -37 -20 -52 -30 -50 -10
1 -18 -8 -22 -23 -4 -14 -11 -25 -16 -25 -6 0 -10 -9 -10 -20 0 -11 -7 -20
-15 -20 -10 0 -15 -10 -15 -30 0 -20 -5 -30 -15 -30 -8 0 -15 -7 -15 -15 0 -8
-7 -15 -15 -15 -13 0 -15 -7 -9 -35 5 -28 3 -35 -10 -35 -9 0 -16 -7 -16 -15
0 -8 -7 -15 -15 -15 -8 0 -15 -7 -15 -15 0 -8 -4 -15 -10 -15 -5 0 -10 -7 -10
-15 0 -9 -8 -19 -17 -22 -32 -12 -46 -33 -51 -79 -3 -26 -10 -44 -17 -44 -7 0
-16 -7 -19 -16 -4 -11 -13 -14 -27 -11 -15 4 -23 0 -26 -14 -3 -10 -9 -19 -14
-19 -5 0 -9 -6 -9 -14 0 -8 -7 -17 -16 -20 -9 -3 -14 -13 -10 -21 3 -8 1 -17
-4 -20 -4 -3 -11 1 -13 7 -3 7 -6 8 -6 2 -1 -16 70 -104 84 -104 7 0 52 18
101 40 122 56 199 80 258 80 62 -1 75 -10 110 -80 15 -30 34 -61 43 -67 30
-23 -12 -26 -61 -5 -36 16 -50 30 -70 70 -14 27 -32 52 -41 55 -22 9 -70 -2
-145 -33 -115 -48 -135 -62 -138 -102 -3 -31 5 -46 60 -113 107 -130 111 -138
91 -152 -27 -20 -42 -15 -49 15 -3 15 -11 37 -17 50 -14 30 -156 182 -169 182
-6 0 -50 -18 -98 -40 -47 -22 -102 -42 -121 -45 l-34 -6 30 16 c17 8 55 26 86
39 31 14 62 32 69 41 21 26 4 71 -60 155 -69 91 -130 203 -130 241 0 34 35 65
106 92 73 28 99 68 84 132 -18 81 -76 94 -185 44 -61 -29 -70 -31 -106 -20
-82 25 -156 117 -245 308 l-54 116 -34 -6 c-31 -5 -34 -3 -54 39 l-22 44 30
15 c18 10 30 23 30 36 0 13 4 18 13 13 9 -6 9 -4 1 7 -6 8 -21 41 -34 74 -13
33 -29 67 -35 75 -7 8 -26 45 -42 82 -30 65 -63 108 -83 108 -5 0 3 -21 19
-47 31 -50 101 -216 101 -238 0 -7 -7 -18 -15 -25 -12 -10 -18 -7 -32 19 -10
17 -21 31 -25 31 -16 0 -7 -32 26 -98 34 -68 86 -190 86 -202 0 -4 -11 -12
-25 -18 -22 -10 -26 -9 -40 18 l-16 30 -57 -29 c-31 -16 -81 -45 -111 -65 -29
-20 -54 -36 -55 -36 -2 0 -11 18 -22 41 l-18 41 34 29 c19 15 71 46 115 69
121 61 73 48 -71 -21 -79 -37 -124 -63 -116 -68 10 -6 62 -124 62 -141 0 -4
-12 -12 -26 -18 -25 -12 -26 -12 -95 133 -67 140 -86 171 -73 121 4 -18 1 -25
-17 -29 -14 -4 -30 0 -39 8 -10 9 -21 11 -30 5 -12 -8 -11 -16 8 -55 12 -25
22 -52 22 -60 0 -8 3 -15 8 -15 9 0 50 -89 58 -127 4 -22 0 -35 -22 -56 -14
-15 -30 -27 -34 -27 -8 0 -169 -74 -241 -110 l-39 -21 -12 26 c-8 18 -16 24
-27 19 -40 -16 -46 -14 -62 25 -16 38 -16 39 7 57 l23 19 -21 45 c-12 25 -31
67 -43 93 l-23 49 112 52 c193 92 210 99 251 107 l40 6 -43 2 c-26 1 -41 5
-37 11 3 6 -1 13 -9 16 -9 3 -16 14 -16 24 0 11 -5 22 -10 25 -19 12 -93 193
-112 275 -6 25 -14 50 -18 55 -5 6 -7 84 -6 175 2 155 12 235 35 277 5 10 20
44 32 76 13 31 26 57 30 57 4 0 10 11 13 25 8 32 57 67 134 95 34 12 65 26 68
31 3 5 -15 0 -38 -10 -24 -10 -58 -22 -76 -26 l-32 -7 0 51 c0 28 3 51 8 51 4
0 18 -9 32 -20 39 -30 78 -24 181 28 l94 48 -1 39 c-1 22 -5 85 -9 141 -5 63
-4 107 2 119 8 14 12 7 17 -36 12 -92 15 -99 46 -99 15 0 33 7 40 15 7 8 18
15 26 15 7 0 19 6 26 13 7 7 40 24 73 38 33 13 66 30 73 36 12 12 34 17 55 14
4 0 7 3 7 9 0 5 7 10 15 10 8 0 15 5 15 10 0 6 7 10 15 10 8 0 39 13 69 29 30
16 56 28 58 25 3 -2 26 7 52 21 26 14 53 25 60 25 8 0 19 7 26 15 7 8 16 12
21 10 4 -3 27 4 50 15 23 12 53 23 66 24 14 2 28 7 31 12 4 5 18 15 31 22 21
12 23 12 18 -2 -6 -14 -3 -15 13 -6 15 8 20 8 20 -3 0 -7 -35 -27 -78 -45
-176 -72 -253 -141 -237 -212 8 -38 16 -38 35 3 20 43 123 104 268 157 29 11
32 16 32 53 0 35 -7 48 -42 85 -59 61 -15 36 60 -33 42 -39 68 -55 87 -55 31
0 184 69 201 91 16 19 23 80 13 100 -5 9 -29 30 -54 45 -25 16 -45 32 -45 37
0 14 87 7 141 -12 30 -10 79 -33 109 -50 65 -36 69 -37 154 -11 67 21 81 35
100 98 7 21 0 26 -86 66 -51 24 -138 61 -193 81 -55 21 -109 48 -122 61 -14
15 -34 24 -55 25 -148 3 -452 4 -488 2z m-212 -301 c4 -25 -5 -27 -30 -8 -13
10 -15 15 -6 24 17 17 32 10 36 -16z m-349 -141 c14 -9 8 -61 -7 -61 -10 0
-41 57 -34 64 8 8 25 7 41 -3z m-468 -488 c2 -24 -2 -57 -7 -62 -6 -6 -44 30
-44 42 0 10 30 36 43 37 4 0 8 -8 8 -17z m219 -47 c0 -2 -7 -7 -16 -10 -8 -3
-12 -2 -9 4 6 10 25 14 25 6z m-40 -20 c0 -2 -7 -7 -16 -10 -8 -3 -12 -2 -9 4
6 10 25 14 25 6z m-465 -326 c-4 -6 -37 -26 -75 -45 -38 -19 -73 -42 -78 -51
-7 -13 -14 -14 -27 -6 -16 8 -13 13 26 40 24 17 52 37 61 46 9 8 32 16 50 19
18 2 37 5 41 5 5 1 5 -3 2 -8z m16 -505 c9 -17 20 -41 24 -53 6 -22 5 -23 -15
-12 -14 7 -45 10 -77 8 -51 -4 -55 -3 -64 19 -5 13 -9 33 -9 44 0 18 4 20 30
14 16 -3 37 -2 47 4 27 16 45 9 64 -24z m25 -242 c-9 -39 -37 -75 -75 -96
l-31 -19 0 34 c1 40 20 67 63 89 45 24 50 23 43 -8z m2498 -452 c8 -13 -99
-63 -126 -59 -22 4 -22 5 7 18 17 8 36 23 43 32 13 18 67 25 76 9z m-1844 -72
c37 -78 44 -124 28 -174 -11 -33 -19 -41 -48 -49 -78 -19 -169 34 -216 125
-27 54 -28 59 -14 59 5 0 19 -20 31 -45 38 -80 98 -98 157 -47 44 38 48 67 18
126 -14 27 -23 53 -20 58 14 22 37 3 64 -53z m-392 -524 c16 -35 15 -55 -5
-77 -22 -25 -38 -23 -51 7 -17 36 -15 45 10 72 27 29 32 29 46 -2z m2498 -131
c-5 -14 -9 -15 -19 -5 -9 9 -9 14 3 21 18 11 24 6 16 -16z m-1691 -64 c3 -5
-1 -10 -9 -10 -18 0 -46 -27 -46 -45 0 -8 6 -12 14 -9 8 3 23 1 33 -5 17 -10
16 -10 -4 -11 -32 0 -53 -10 -53 -26 0 -24 -36 5 -60 49 -12 21 -20 40 -19 41
31 25 131 36 144 16z m-635 -45 l25 -14 -31 -1 c-17 0 -37 7 -44 15 -10 12 -9
15 6 15 11 -1 30 -7 44 -15z m775 -35 c16 -16 24 -30 19 -30 -6 0 -23 14 -39
30 -16 17 -24 30 -19 30 6 0 23 -13 39 -30z m1575 12 c0 -16 -73 -77 -77 -65
-2 7 -5 15 -6 17 -2 5 64 54 76 55 4 1 7 -3 7 -7z m-1135 -39 c15 -15 10 -19
-74 -54 -104 -45 -190 -69 -241 -68 -42 0 -30 7 75 39 77 23 208 80 213 92 5
11 8 10 27 -9z m1015 -58 c0 -8 -4 -15 -10 -15 -5 0 -10 7 -10 15 0 8 5 15 10
15 6 0 10 -7 10 -15z m-1566 -52 c15 -14 25 -31 23 -37 -2 -6 -37 -24 -78 -41
-41 -16 -79 -36 -85 -44 -8 -10 -16 -11 -28 -4 -16 9 -13 12 16 23 59 24 95
57 102 95 8 42 15 43 50 8z m-264 -123 c11 -7 9 -11 -12 -19 -14 -5 -28 -15
-30 -22 -2 -7 -11 -10 -21 -6 -15 6 -15 9 6 31 25 27 35 30 57 16z m978 -44
c-2 -10 -9 -11 -28 -4 l-25 9 25 14 c25 14 34 7 28 -19z m196 -71 c5 -14 -20
-35 -43 -35 -12 0 -15 33 -4 43 12 12 41 7 47 -8z m-638 -122 c-11 -11 -17 4
-9 23 7 18 8 18 11 1 2 -10 1 -21 -2 -24z m269 -22 c3 -5 1 -12 -5 -16 -5 -3
-10 1 -10 9 0 18 6 21 15 7z m233 -28 c-10 -2 -26 -2 -35 0 -10 3 -2 5 17 5
19 0 27 -2 18 -5z"/>
<path d="M2670 3968 c-199 -88 -230 -109 -230 -157 0 -15 14 -53 30 -84 36
-68 38 -103 7 -148 -46 -69 -141 -97 -218 -65 -43 18 -58 36 -93 108 -34 72
-54 79 -145 49 -92 -30 -205 -92 -209 -115 -5 -25 50 -219 58 -206 4 6 18 -13
32 -42 14 -30 44 -82 66 -115 44 -70 58 -134 41 -198 -6 -22 -14 -53 -18 -70
-7 -30 -8 -30 -64 -27 -48 3 -66 -1 -117 -27 -32 -17 -68 -31 -78 -31 -27 0
-50 29 -55 70 l-4 35 -1 -40 c-3 -90 83 -123 186 -71 106 54 139 30 236 -166
35 -70 65 -125 68 -123 3 3 20 -28 38 -68 l34 -74 85 35 c99 39 149 64 207
100 l41 25 -25 61 c-13 34 -29 71 -35 84 -9 18 -6 28 11 52 12 16 22 37 22 47
0 102 92 192 196 193 57 0 138 -42 154 -81 7 -16 11 -31 9 -33 -5 -5 -209
-101 -271 -128 -51 -22 -53 -25 -38 -48 8 -13 10 -13 10 2 0 19 9 26 51 38 17
5 27 5 24 0 -3 -5 1 -23 10 -40 l16 -30 60 31 c33 16 73 35 87 40 16 6 22 13
15 17 -6 4 -14 21 -17 39 -7 28 -4 33 23 47 43 23 49 21 72 -29 22 -46 27 -49
91 -46 34 1 39 -2 58 -40 12 -22 20 -42 18 -43 -2 -2 -22 -8 -46 -14 -41 -10
-44 -9 -53 15 -5 14 -12 23 -15 20 -3 -3 4 -24 16 -47 12 -24 18 -46 13 -51
-20 -20 -330 -159 -355 -159 -15 0 -36 10 -48 22 -24 26 -27 12 -4 -21 16 -22
16 -23 -3 -13 -26 14 -99 -26 -95 -51 3 -16 -84 -63 -255 -138 l-43 -18 -25
47 c-30 59 -33 49 -3 -13 21 -42 25 -45 51 -39 16 3 80 30 143 59 62 30 119
55 127 57 8 2 26 -9 40 -24 42 -45 92 -39 245 28 224 99 229 104 198 178 -13
32 -13 38 -1 42 17 7 35 -3 35 -20 0 -7 13 -25 30 -41 27 -26 31 -27 62 -15
61 23 78 65 49 115 -15 26 -9 43 19 55 34 14 37 27 14 56 -15 19 -15 18 -9 -3
6 -21 -16 -43 -43 -43 -11 0 -132 237 -132 257 0 7 -8 16 -17 22 -16 9 -16 12
7 36 23 25 67 49 227 121 l52 23 -29 60 c-37 75 -70 173 -70 204 0 31 23 51
85 74 90 34 122 117 66 174 -35 35 -83 38 -139 10 -102 -51 -150 -37 -257 73
-44 45 -108 119 -143 164 -66 86 -80 93 -132 70z"/>
<path d="M4966 3907 c-17 -12 -16 -16 8 -70 15 -31 29 -57 32 -57 5 0 45 19
52 25 7 6 -53 115 -63 115 -6 0 -19 -6 -29 -13z"/>
<path d="M4738 3803 c-10 -2 -18 -10 -18 -17 0 -17 66 -153 78 -160 6 -3 33 4
61 16 28 11 53 19 55 17 2 -2 17 -34 34 -71 l31 -67 51 21 c51 21 69 43 26 32
-22 -5 -28 1 -57 58 -17 34 -33 65 -35 67 -2 3 -26 -6 -54 -19 l-50 -23 -19
22 c-10 12 -29 46 -42 76 -24 54 -27 57 -61 48z"/>
<path d="M2005 3756 c-54 -17 -198 -83 -224 -103 -8 -5 32 -43 45 -43 8 0 46
16 86 36 146 71 249 91 296 58 26 -18 29 -8 6 24 -21 30 -66 52 -106 52 -18
-1 -64 -11 -103 -24z"/>
<path d="M5060 3749 c-58 -32 -53 -33 18 -4 23 9 42 21 42 26 0 11 4 13 -60
-22z"/>
<path d="M4661 3714 c0 -11 3 -14 6 -6 3 7 2 16 -1 19 -3 4 -6 -2 -5 -13z"/>
<path d="M2401 3659 c-3 -45 -95 -78 -131 -46 -10 9 -9 5 2 -13 8 -14 27 -32
41 -40 54 -31 116 23 97 86 -4 16 -9 22 -9 13z"/>
<path d="M4280 3600 c-12 -7 -10 -11 10 -18 169 -65 210 -85 210 -103 0 -27
26 -13 44 22 14 27 13 31 -2 36 -9 3 -53 20 -98 39 -81 34 -136 42 -164 24z"/>
<path d="M4650 3536 c0 -2 7 -7 16 -10 8 -3 12 -2 9 4 -6 10 -25 14 -25 6z"/>
<path d="M4587 3498 c-2 -13 -8 -32 -12 -43 -5 -16 -5 -17 3 -5 9 12 21 10 82
-17 l71 -32 57 26 c56 25 57 25 32 39 -32 17 -49 18 -26 1 18 -13 18 -14 1
-20 -10 -5 -52 8 -106 33 -49 22 -91 40 -93 40 -2 0 -6 -10 -9 -22z"/>
<path d="M4707 3509 c7 -7 15 -10 18 -7 3 3 -2 9 -12 12 -14 6 -15 5 -6 -5z"/>
<path d="M1719 3493 c13 -26 58 -207 67 -269 8 -67 -5 -90 -69 -119 -93 -41
-141 -113 -141 -210 0 -74 24 -127 73 -161 54 -37 68 -29 28 15 -59 65 -63
164 -11 248 22 36 43 54 89 76 33 16 64 35 68 41 13 18 -1 154 -27 254 -25 95
-35 116 -68 133 -17 9 -18 8 -9 -8z"/>
<path d="M4065 3458 c-125 -59 -120 -56 -113 -63 3 -3 43 13 89 35 45 22 88
40 94 40 7 0 20 -17 29 -39 14 -29 22 -37 37 -34 10 3 19 8 19 10 0 13 -35
103 -40 103 -3 -1 -54 -24 -115 -52z"/>
<path d="M4745 3490 c3 -5 11 -10 16 -10 6 0 7 5 4 10 -3 6 -11 10 -16 10 -6
0 -7 -4 -4 -10z"/>
<path d="M4561 3413 c-1 -6 -4 -20 -7 -30 -5 -17 -5 -17 6 0 6 10 9 23 6 30
-3 9 -5 9 -5 0z"/>
<path d="M4122 3318 c-57 -27 -101 -52 -99 -54 2 -3 42 14 88 36 46 22 87 39
92 37 5 -1 21 -31 36 -65 15 -35 33 -68 38 -73 11 -11 103 28 103 43 0 11 -18
10 -25 -2 -17 -28 -43 -7 -75 60 -19 39 -39 70 -44 69 -6 0 -57 -23 -114 -51z"/>
<path d="M3865 3350 c-4 -6 -1 -18 6 -26 10 -12 14 -12 20 -2 5 7 9 19 9 26 0
15 -26 16 -35 2z"/>
<path d="M4532 3330 c-7 -11 -18 -20 -26 -20 -7 0 -19 -7 -26 -15 -17 -21 -1
-19 38 5 17 11 32 27 32 35 0 20 -3 19 -18 -5z"/>
<path d="M1872 3295 c0 -16 2 -22 5 -12 2 9 2 23 0 30 -3 6 -5 -1 -5 -18z"/>
<path d="M3464 3222 c-13 -8 134 -333 152 -339 6 -2 73 26 149 62 75 36 141
65 145 65 16 0 29 26 20 40 -8 13 -10 13 -10 -1 0 -10 -46 -37 -131 -77 -73
-34 -137 -62 -143 -62 -12 0 -113 194 -137 263 -15 43 -30 59 -45 49z"/>
<path d="M3933 3188 c8 -18 24 -56 36 -85 l23 -51 49 21 c26 12 49 26 49 31 0
4 -8 5 -17 1 -45 -18 -49 -17 -73 35 -33 71 -95 115 -67 48z"/>
<path d="M3395 3130 c3 -5 8 -10 11 -10 2 0 4 5 4 10 0 6 -5 10 -11 10 -5 0
-7 -4 -4 -10z"/>
<path d="M3195 3054 c-66 -31 -121 -57 -122 -58 -2 -1 9 -25 23 -53 l25 -51
128 60 128 60 -20 49 c-12 27 -26 49 -31 49 -6 -1 -65 -26 -131 -56z"/>
<path d="M3410 3101 c0 -6 4 -13 10 -16 6 -3 7 1 4 9 -7 18 -14 21 -14 7z"/>
<path d="M3430 3061 c0 -6 4 -13 10 -16 6 -3 7 1 4 9 -7 18 -14 21 -14 7z"/>
<path d="M1819 3033 c-13 -16 -12 -17 4 -4 9 7 17 15 17 17 0 8 -8 3 -21 -13z"/>
<path d="M1755 3005 c-25 -12 -26 -14 -5 -9 28 7 60 23 45 23 -5 0 -23 -6 -40
-14z"/>
<path d="M1694 2968 l-19 -23 23 19 c21 18 27 26 19 26 -2 0 -12 -10 -23 -22z"/>
<path d="M2976 2747 c3 -10 9 -15 12 -12 3 3 0 11 -7 18 -10 9 -11 8 -5 -6z"/>
<path d="M2805 2690 c-58 -28 -83 -36 -92 -28 -15 12 -17 0 -4 -20 6 -11 25
-5 87 23 93 43 95 44 101 28 3 -7 0 -13 -6 -13 -6 0 -44 -16 -84 -35 -48 -24
-78 -46 -89 -65 -9 -17 -15 -30 -12 -30 5 0 227 100 232 105 7 6 -33 75 -42
74 -6 0 -47 -18 -91 -39z"/>
<path d="M2666 2547 c3 -10 9 -15 12 -12 3 3 0 11 -7 18 -10 9 -11 8 -5 -6z"/>
<path d="M1775 2392 c-66 -31 -121 -57 -123 -58 -2 -1 8 -25 22 -52 l26 -51
125 57 c68 31 125 59 125 63 1 15 -81 4 -151 -22 -92 -34 -95 -34 -103 -13 -4
12 18 27 97 64 56 28 108 50 115 50 6 0 12 5 12 10 0 17 -21 10 -145 -48z"/>
<path d="M2240 2366 c0 -15 24 -66 31 -66 12 0 11 6 -6 40 -13 26 -25 38 -25
26z"/>
<path d="M2353 2246 l-72 -35 10 -30 c6 -17 14 -33 17 -35 4 -2 41 11 82 29
76 34 107 63 96 90 -9 24 -56 18 -133 -19z"/>
<path d="M1301 2170 c-57 -28 -107 -50 -112 -50 -14 0 -11 -11 13 -60 13 -25
24 -46 25 -48 0 -2 55 22 121 53 l120 57 -20 49 c-12 27 -26 49 -32 49 -6 -1
-58 -23 -115 -50z"/>
<path d="M1364 2030 l-121 -57 30 -65 30 -64 91 44 c50 24 102 49 116 55 l25
11 -32 4 c-19 2 -61 -9 -105 -26 l-73 -30 -17 32 c-9 17 -17 36 -18 42 0 6 32
24 71 39 69 28 72 29 115 13 l43 -15 -13 26 c-7 14 -15 31 -17 38 -3 7 -49
-10 -125 -47z"/>
<path d="M4140 1983 c0 -28 -3 -60 -6 -70 -4 -11 -3 -14 3 -7 4 7 17 13 28 15
29 6 29 39 0 78 l-25 35 0 -51z"/>
<path d="M855 1959 c-55 -27 -103 -50 -108 -51 -4 -2 11 -37 32 -78 22 -41 49
-100 61 -130 12 -30 23 -56 25 -58 3 -3 214 104 223 113 2 2 -12 20 -32 40
-35 35 -45 55 -27 55 11 0 -54 154 -66 156 -4 2 -53 -20 -108 -47z m0 -59
c-17 -17 -25 -35 -22 -44 12 -30 -2 -16 -19 19 -19 41 -20 38 26 57 44 19 50
5 15 -32z m60 -81 c-5 9 -4 12 3 7 7 -4 17 -17 24 -29 10 -20 10 -21 -6 -8
-14 12 -13 7 4 -35 20 -46 20 -49 4 -61 -31 -22 -41 -15 -72 55 -29 66 -33 94
-8 59 19 -24 24 -21 18 11 l-5 27 23 -20 c13 -11 20 -14 15 -6z"/>
<path d="M390 1780 c-30 -17 -31 -19 -11 -17 21 2 30 -10 72 -92 26 -52 54
-114 61 -138 7 -24 16 -43 20 -43 4 0 47 18 94 40 92 43 104 46 104 30 0 -9
-27 -23 -190 -97 -30 -14 -50 -27 -44 -29 9 -4 277 116 291 129 2 3 0 14 -6
26 -11 19 -14 19 -105 -24 l-94 -43 -66 139 c-37 76 -72 139 -79 139 -7 -1
-28 -10 -47 -20z"/>
<path d="M2861 1769 c-2 -38 -65 -106 -111 -120 -46 -14 -80 -43 -79 -67 0 -9
3 -12 5 -5 3 7 22 17 42 24 63 21 109 58 132 106 12 25 19 55 17 67 -4 18 -4
17 -6 -5z"/>
<path d="M268 1724 c-30 -16 -38 -27 -13 -18 10 4 18 -2 24 -17 9 -23 3 -27
-104 -80 l-112 -55 43 -90 c24 -49 45 -93 47 -98 1 -5 21 1 42 12 22 12 33 21
24 22 -14 0 -28 26 -29 52 0 3 25 18 55 32 30 14 55 27 55 30 0 7 -38 -7 -90
-34 -38 -19 -41 -20 -46 -3 -3 10 -13 36 -21 58 -10 28 -11 41 -4 43 7 2 56
26 111 53 103 50 108 57 77 97 -12 15 -25 15 -59 -4z"/>
<path d="M200 1690 c-9 -6 -10 -10 -3 -10 6 0 15 5 18 10 8 12 4 12 -15 0z"/>
<path d="M3865 1670 c-22 -10 -34 -19 -27 -19 14 -1 72 27 72 34 0 6 3 7 -45
-15z"/>
<path d="M75 1630 c-3 -6 1 -7 9 -4 18 7 21 14 7 14 -6 0 -13 -4 -16 -10z"/>
<path d="M330 1580 c-29 -16 -31 -19 -11 -17 20 2 28 -8 57 -76 19 -44 34 -80
34 -82 0 -9 -232 -105 -256 -106 -27 0 -28 -1 -6 -9 26 -11 35 -8 200 67 67
31 122 60 122 64 0 23 -80 179 -92 179 -7 -1 -29 -10 -48 -20z"/>
<path d="M300 1435 c-14 -8 -20 -14 -14 -15 5 0 19 7 30 15 24 18 16 19 -16 0z"/>
<path d="M250 1410 c-9 -6 -10 -10 -3 -10 6 0 15 5 18 10 8 12 4 12 -15 0z"/>
<path d="M2760 1410 c0 -5 6 -10 14 -10 8 0 18 5 21 10 3 6 -3 10 -14 10 -12
0 -21 -4 -21 -10z"/>
<path d="M1949 719 c24 -11 46 -18 48 -15 4 4 -73 36 -85 35 -4 0 13 -9 37
-20z"/>
</g>
</svg>
